<?xml version="1.0" encoding="utf-8"?>
<!-- Generator: Adobe Illustrator 21.0.2, SVG Export Plug-In . SVG Version: 6.00 Build 0)  -->
<svg version="1.1" id="图层_1" xmlns="http://www.w3.org/2000/svg" xmlns:xlink="http://www.w3.org/1999/xlink" x="0px" y="0px"
	 viewBox="0 0 303.5 95.7" style="enable-background:new 0 0 303.5 95.7;" xml:space="preserve">
<style type="text/css">
	.st0{fill:#464342;}
	.st1{font-family:'Lato-Bold';}
	.st2{font-size:38.6846px;}
</style>
<g>
	<text transform="matrix(1 0 0 1 72.0356 62.536)" class="st0 st1 st2">ONE DESIGN</text>
</g>
<g>
	<g>
		<g>
			<path class="st0" d="M16.9,88.5c-0.4,0-0.5,0-0.7-0.2l-15-8.8c-0.5-0.4-0.7-0.7-0.7-1.4V25.6c0-0.5,0.4-1.1,0.7-1.4L31.3,6.6
				c0.5-0.4,1.1-0.4,1.6,0L48,15.4c0.5,0.4,0.7,0.7,0.7,1.4v52.6c0,0.5-0.4,1.1-0.7,1.4L17.6,88.2C17.4,88.4,17.1,88.5,16.9,88.5z
				 M3.4,77.3l13.5,7.9l28.7-16.7V17.7L32,9.7L3.4,26.4V77.3z"/>
		</g>
		<g>
			<path class="st0" d="M1.8,79.7c-0.5,0-1.1-0.4-1.4-0.7c-0.4-0.7-0.2-1.8,0.5-2.1l15-8.8c0.5-0.4,1.1-0.4,1.6,0l12.8,7.4v-50
				c0-0.9,0.7-1.6,1.6-1.6c0.9,0,1.6,0.7,1.6,1.6V78c0,0.5-0.4,1.1-0.7,1.4c-0.5,0.4-1.1,0.4-1.6,0l-14.4-8.3L2.7,79.4
				C2.3,79.6,2.1,79.7,1.8,79.7z"/>
		</g>
		<g>
			<path class="st0" d="M16.9,70.9c-0.9,0-1.6-0.7-1.6-1.6V16.8c0-0.5,0.4-1.1,0.7-1.4c0.5-0.4,1.1-0.4,1.6,0L32,23.6l14.4-8.3
				c0.7-0.4,1.8-0.2,2.1,0.5c0.4,0.7,0.2,1.8-0.5,2.1l-15.1,8.8c-0.5,0.4-1.1,0.4-1.6,0l-13-7.2v49.8C18.3,70.2,17.6,70.9,16.9,70.9
				z"/>
		</g>
	</g>
</g>
</svg>
