<?xml version="1.0" encoding="utf-8"?>
<!-- Generator: Adobe Illustrator 21.0.2, SVG Export Plug-In . SVG Version: 6.00 Build 0)  -->
<svg version="1.1" id="图层_1" xmlns="http://www.w3.org/2000/svg" xmlns:xlink="http://www.w3.org/1999/xlink" x="0px" y="0px"
	 viewBox="0 0 200 50" style="enable-background:new 0 0 200 50;" xml:space="preserve">
<style type="text/css">
	.st0{fill:#FFFFFF;}
</style>
<g>
	<g>
		<g>
			<path class="st0" d="M10.3,49.8c-0.2,0-0.3,0-0.5-0.1l-9.1-5.3c-0.3-0.2-0.5-0.5-0.5-0.8V11.7c0-0.3,0.2-0.6,0.5-0.8L19,0.2
				c0.3-0.2,0.7-0.2,0.9,0l9.2,5.3c0.3,0.2,0.5,0.5,0.5,0.8v31.8c0,0.3-0.2,0.6-0.5,0.8L10.7,49.7C10.6,49.8,10.4,49.8,10.3,49.8z
				 M2.1,43l8.2,4.8l17.4-10.1V6.9l-8.2-4.8L2.1,12.2V43z"/>
		</g>
		<g>
			<path class="st0" d="M1.2,44.5c-0.3,0-0.6-0.2-0.8-0.5c-0.3-0.4-0.1-1,0.3-1.3l9.1-5.3c0.3-0.2,0.7-0.2,0.9,0l7.8,4.5V11.7
				c0-0.5,0.4-0.9,0.9-0.9c0.5,0,0.9,0.4,0.9,0.9v31.8c0,0.3-0.2,0.6-0.5,0.8c-0.3,0.2-0.6,0.2-0.9,0l-8.7-5.1l-8.6,5.1
				C1.5,44.4,1.3,44.5,1.2,44.5z"/>
		</g>
		<g>
			<path class="st0" d="M10.3,39.1c-0.5,0-0.9-0.4-0.9-0.9V6.4c0-0.3,0.2-0.6,0.5-0.8c0.3-0.2,0.6-0.2,0.9,0l8.7,5l8.7-5.1
				c0.4-0.3,1-0.1,1.3,0.3c0.3,0.4,0.1,1-0.3,1.3l-9.2,5.3c-0.3,0.2-0.7,0.2-0.9,0L11.2,8v30.2C11.2,38.7,10.8,39.1,10.3,39.1z"/>
		</g>
	</g>
</g>
<g>
	<path class="st0" d="M57.6,25.4c0,1.3-0.2,2.4-0.6,3.5c-0.4,1.1-1,2-1.8,2.8c-0.8,0.8-1.7,1.4-2.8,1.9c-1.1,0.5-2.3,0.7-3.7,0.7
		c-1.3,0-2.6-0.2-3.7-0.7c-1.1-0.5-2.1-1.1-2.8-1.9c-0.8-0.8-1.4-1.7-1.8-2.8c-0.4-1.1-0.6-2.2-0.6-3.5c0-1.2,0.2-2.4,0.6-3.5
		c0.4-1.1,1-2,1.8-2.8c0.8-0.8,1.7-1.4,2.8-1.9c1.1-0.5,2.3-0.7,3.7-0.7c1.3,0,2.6,0.2,3.7,0.7c1.1,0.5,2,1.1,2.8,1.9
		c0.8,0.8,1.4,1.7,1.8,2.8C57.4,23,57.6,24.2,57.6,25.4z M53.5,25.4c0-0.9-0.1-1.6-0.3-2.3c-0.2-0.7-0.5-1.3-1-1.7
		c-0.4-0.5-0.9-0.8-1.5-1.1c-0.6-0.3-1.3-0.4-2.1-0.4c-0.8,0-1.5,0.1-2.1,0.4c-0.6,0.3-1.1,0.6-1.5,1.1c-0.4,0.5-0.7,1.1-1,1.7
		c-0.2,0.7-0.3,1.5-0.3,2.3c0,0.9,0.1,1.6,0.3,2.3c0.2,0.7,0.5,1.3,1,1.7c0.4,0.5,0.9,0.8,1.5,1.1c0.6,0.2,1.3,0.4,2.1,0.4
		c0.8,0,1.5-0.1,2.1-0.4c0.6-0.2,1.1-0.6,1.5-1.1c0.4-0.5,0.7-1.1,1-1.7C53.4,27,53.5,26.3,53.5,25.4z"/>
	<path class="st0" d="M58.2,32.2c0-0.3,0.1-0.5,0.2-0.8c0.1-0.2,0.3-0.5,0.4-0.6c0.2-0.2,0.4-0.3,0.7-0.4c0.3-0.1,0.5-0.2,0.8-0.2
		c0.3,0,0.6,0.1,0.8,0.2c0.3,0.1,0.5,0.3,0.7,0.4c0.2,0.2,0.3,0.4,0.4,0.6c0.1,0.2,0.2,0.5,0.2,0.8c0,0.3-0.1,0.6-0.2,0.8
		c-0.1,0.2-0.3,0.5-0.4,0.6c-0.2,0.2-0.4,0.3-0.7,0.4c-0.3,0.1-0.5,0.2-0.8,0.2c-0.3,0-0.6-0.1-0.8-0.2c-0.3-0.1-0.5-0.2-0.7-0.4
		c-0.2-0.2-0.3-0.4-0.4-0.6C58.3,32.7,58.2,32.5,58.2,32.2z"/>
	<path class="st0" d="M67.1,16.8c0.1,0,0.2,0,0.3,0.1c0.1,0,0.2,0.1,0.3,0.2c0.1,0.1,0.2,0.2,0.3,0.3l8.2,10.4c0-0.3-0.1-0.7-0.1-1
		c0-0.3,0-0.6,0-0.9v-9.1h3.5v17.3h-2.1c-0.3,0-0.6,0-0.8-0.1c-0.2-0.1-0.4-0.3-0.6-0.5L68,23.1c0,0.3,0,0.6,0.1,0.9
		c0,0.3,0,0.6,0,0.8v9.3h-3.5V16.8h2.1C66.8,16.8,67,16.8,67.1,16.8z"/>
	<path class="st0" d="M81.7,32.2c0-0.3,0.1-0.5,0.2-0.8c0.1-0.2,0.3-0.5,0.4-0.6c0.2-0.2,0.4-0.3,0.7-0.4c0.3-0.1,0.5-0.2,0.8-0.2
		c0.3,0,0.6,0.1,0.8,0.2c0.3,0.1,0.5,0.3,0.7,0.4c0.2,0.2,0.3,0.4,0.4,0.6c0.1,0.2,0.2,0.5,0.2,0.8c0,0.3-0.1,0.6-0.2,0.8
		c-0.1,0.2-0.3,0.5-0.4,0.6c-0.2,0.2-0.4,0.3-0.7,0.4c-0.3,0.1-0.5,0.2-0.8,0.2c-0.3,0-0.6-0.1-0.8-0.2c-0.3-0.1-0.5-0.2-0.7-0.4
		c-0.2-0.2-0.3-0.4-0.4-0.6C81.8,32.7,81.7,32.5,81.7,32.2z"/>
	<path class="st0" d="M99.2,16.8v3.1h-7.1v4h5.4v3h-5.4V31h7.1v3.1H88.1V16.8H99.2z"/>
	<path class="st0" d="M100.7,32.2c0-0.3,0.1-0.5,0.2-0.8c0.1-0.2,0.3-0.5,0.4-0.6c0.2-0.2,0.4-0.3,0.7-0.4c0.3-0.1,0.5-0.2,0.8-0.2
		c0.3,0,0.6,0.1,0.8,0.2c0.3,0.1,0.5,0.3,0.7,0.4c0.2,0.2,0.3,0.4,0.4,0.6c0.1,0.2,0.2,0.5,0.2,0.8c0,0.3-0.1,0.6-0.2,0.8
		c-0.1,0.2-0.3,0.5-0.4,0.6c-0.2,0.2-0.4,0.3-0.7,0.4c-0.3,0.1-0.5,0.2-0.8,0.2c-0.3,0-0.6-0.1-0.8-0.2c-0.3-0.1-0.5-0.2-0.7-0.4
		c-0.2-0.2-0.3-0.4-0.4-0.6C100.8,32.7,100.7,32.5,100.7,32.2z"/>
</g>
<path class="st0" d="M130.6,25.3c0,1.3-0.2,2.4-0.6,3.5c-0.4,1-1,1.9-1.7,2.7c-0.7,0.7-1.6,1.3-2.6,1.7c-1,0.4-2.2,0.6-3.4,0.6h-6.4
	v-17h6.4c1.3,0,2.4,0.2,3.4,0.6c1,0.4,1.9,1,2.6,1.7c0.7,0.7,1.3,1.6,1.7,2.7C130.4,22.9,130.6,24.1,130.6,25.3z M128.2,25.3
	c0-1-0.1-2-0.4-2.8c-0.3-0.8-0.7-1.5-1.2-2.1c-0.5-0.6-1.2-1-1.9-1.3c-0.7-0.3-1.6-0.5-2.5-0.5h-4V32h4c0.9,0,1.7-0.2,2.5-0.5
	c0.7-0.3,1.4-0.7,1.9-1.3c0.5-0.6,0.9-1.3,1.2-2.1C128.1,27.3,128.2,26.4,128.2,25.3z"/>
<path class="st0" d="M144.2,16.8v1.9H136v5.6h6.6v1.8H136V32h8.2v1.9h-10.5v-17H144.2z"/>
<path class="st0" d="M156.2,19.5c-0.1,0.1-0.1,0.2-0.2,0.3c-0.1,0.1-0.2,0.1-0.3,0.1c-0.1,0-0.3-0.1-0.5-0.2
	c-0.2-0.1-0.4-0.3-0.7-0.4c-0.3-0.2-0.6-0.3-1-0.4c-0.4-0.1-0.8-0.2-1.4-0.2c-0.5,0-1,0.1-1.4,0.2c-0.4,0.1-0.7,0.3-1,0.6
	c-0.3,0.2-0.5,0.5-0.6,0.8c-0.1,0.3-0.2,0.7-0.2,1c0,0.5,0.1,0.9,0.3,1.2c0.2,0.3,0.5,0.6,0.9,0.8c0.4,0.2,0.8,0.4,1.3,0.6
	c0.5,0.2,1,0.3,1.5,0.5c0.5,0.2,1,0.4,1.5,0.6c0.5,0.2,0.9,0.5,1.3,0.8c0.4,0.3,0.7,0.7,0.9,1.2c0.2,0.5,0.4,1.1,0.4,1.8
	c0,0.7-0.1,1.4-0.4,2.1c-0.3,0.7-0.6,1.2-1.1,1.7c-0.5,0.5-1.1,0.9-1.8,1.1c-0.7,0.3-1.5,0.4-2.4,0.4c-1.1,0-2.1-0.2-3-0.6
	c-0.9-0.4-1.7-0.9-2.3-1.6l0.7-1.1c0.1-0.1,0.1-0.2,0.2-0.2c0.1-0.1,0.2-0.1,0.3-0.1c0.2,0,0.4,0.1,0.6,0.3c0.2,0.2,0.5,0.4,0.8,0.6
	c0.3,0.2,0.7,0.4,1.2,0.6c0.5,0.2,1,0.3,1.7,0.3c0.5,0,1-0.1,1.5-0.2c0.4-0.2,0.8-0.4,1.1-0.6c0.3-0.3,0.5-0.6,0.7-1
	c0.2-0.4,0.2-0.8,0.2-1.3c0-0.5-0.1-0.9-0.4-1.3c-0.2-0.3-0.5-0.6-0.9-0.8c-0.4-0.2-0.8-0.4-1.3-0.6c-0.5-0.2-1-0.3-1.5-0.5
	c-0.5-0.2-1-0.3-1.5-0.6c-0.5-0.2-0.9-0.5-1.3-0.8c-0.4-0.3-0.7-0.8-0.9-1.3c-0.2-0.5-0.3-1.1-0.3-1.9c0-0.6,0.1-1.2,0.3-1.7
	c0.2-0.6,0.6-1.1,1-1.5c0.4-0.4,1-0.8,1.6-1c0.7-0.3,1.4-0.4,2.2-0.4c0.9,0,1.8,0.2,2.6,0.5c0.8,0.3,1.5,0.7,2.1,1.3L156.2,19.5z"/>
<path class="st0" d="M162.8,33.8h-2.3v-17h2.3V33.8z"/>
<path class="st0" d="M174.9,32.2c0.5,0,0.9,0,1.3-0.1c0.4,0,0.7-0.1,1.1-0.2c0.3-0.1,0.7-0.2,1-0.3c0.3-0.1,0.6-0.3,0.9-0.4v-3.7
	h-2.6c-0.2,0-0.3,0-0.4-0.1c-0.1-0.1-0.1-0.2-0.1-0.3v-1.3h5.2v6.5c-0.4,0.3-0.9,0.6-1.3,0.8c-0.5,0.2-1,0.4-1.5,0.6
	c-0.5,0.2-1.1,0.3-1.7,0.3c-0.6,0.1-1.3,0.1-2,0.1c-1.2,0-2.4-0.2-3.4-0.6c-1-0.4-1.9-1-2.7-1.8c-0.7-0.8-1.3-1.7-1.7-2.7
	c-0.4-1.1-0.6-2.2-0.6-3.5c0-1.3,0.2-2.5,0.6-3.5c0.4-1.1,1-2,1.7-2.7c0.8-0.8,1.7-1.4,2.7-1.8c1.1-0.4,2.3-0.6,3.6-0.6
	c0.7,0,1.3,0,1.9,0.1c0.6,0.1,1.1,0.2,1.6,0.4c0.5,0.2,1,0.4,1.4,0.7c0.4,0.3,0.8,0.6,1.2,0.9l-0.7,1c-0.1,0.2-0.3,0.3-0.5,0.3
	c-0.1,0-0.3,0-0.4-0.1c-0.2-0.1-0.4-0.2-0.7-0.4c-0.2-0.2-0.5-0.3-0.9-0.5c-0.4-0.1-0.8-0.3-1.2-0.4c-0.5-0.1-1-0.2-1.7-0.2
	c-1,0-1.8,0.2-2.6,0.5c-0.8,0.3-1.4,0.8-2,1.3c-0.5,0.6-1,1.3-1.3,2.1c-0.3,0.8-0.4,1.8-0.4,2.8c0,1.1,0.2,2,0.5,2.9
	c0.3,0.8,0.7,1.6,1.3,2.1c0.6,0.6,1.2,1,2,1.3C173.2,32,174,32.2,174.9,32.2z"/>
<path class="st0" d="M186.4,16.9c0.1,0.1,0.2,0.2,0.3,0.3l9.8,12.8c0-0.2,0-0.4,0-0.6c0-0.2,0-0.4,0-0.6v-12h2v17h-1.2
	c-0.2,0-0.3,0-0.5-0.1c-0.1-0.1-0.2-0.2-0.4-0.3l-9.8-12.8c0,0.2,0,0.4,0,0.6c0,0.2,0,0.4,0,0.5v12.1h-2v-17h1.2
	C186.2,16.8,186.3,16.9,186.4,16.9z"/>
</svg>
